<svg width="284" height="94" viewBox="0 0 284 94" fill="none" xmlns="http://www.w3.org/2000/svg">
<path d="M110.08 38.2C111.664 38.2 113.088 38.44 114.352 38.92C115.616 39.4 116.616 40.112 117.352 41.056C118.104 41.984 118.48 43.12 118.48 44.464H113.416C113.416 43.776 113.112 43.224 112.504 42.808C111.896 42.376 111.16 42.16 110.296 42.16C109.048 42.16 108.104 42.496 107.464 43.168C106.824 43.824 106.504 44.76 106.504 45.976V47.512C106.504 48.728 106.824 49.672 107.464 50.344C108.104 51 109.048 51.328 110.296 51.328C111.16 51.328 111.896 51.128 112.504 50.728C113.112 50.312 113.416 49.784 113.416 49.144H109.672V45.784H118.48V55H115.744L115.216 53.368C113.712 54.648 111.744 55.288 109.312 55.288C106.576 55.288 104.52 54.576 103.144 53.152C101.768 51.712 101.08 49.576 101.08 46.744C101.08 43.944 101.856 41.824 103.408 40.384C104.976 38.928 107.2 38.2 110.08 38.2ZM129.136 42.016C129.504 42.016 129.832 42.064 130.12 42.16C130.408 42.24 130.552 42.288 130.552 42.304V46.312H129.016C128.024 46.312 127.304 46.568 126.856 47.08C126.424 47.592 126.208 48.352 126.208 49.36V55H121.432V42.328H125.344L125.656 44.248C125.944 43.512 126.4 42.96 127.024 42.592C127.648 42.208 128.352 42.016 129.136 42.016ZM139.023 42.04C141.247 42.04 142.991 42.608 144.255 43.744C145.535 44.864 146.175 46.504 146.175 48.664C146.175 50.824 145.535 52.472 144.255 53.608C142.991 54.728 141.247 55.288 139.023 55.288C136.799 55.288 135.055 54.728 133.791 53.608C132.527 52.488 131.895 50.84 131.895 48.664C131.895 46.488 132.527 44.84 133.791 43.72C135.055 42.6 136.799 42.04 139.023 42.04ZM139.023 45.28C137.455 45.28 136.671 46.184 136.671 47.992V49.36C136.671 51.152 137.455 52.048 139.023 52.048C140.607 52.048 141.399 51.152 141.399 49.36V47.992C141.399 46.184 140.607 45.28 139.023 45.28ZM159.961 55L157.993 47.944H157.897L155.905 55H151.249L146.617 42.328H151.753L153.673 49.816H153.841L155.833 42.328H160.585L162.505 49.816H162.673L164.617 42.328H169.273L164.617 55H159.961ZM179.169 42.328V45.568H176.481V50.392C176.481 50.968 176.577 51.392 176.769 51.664C176.961 51.92 177.313 52.048 177.825 52.048H179.169V54.856C178.785 54.984 178.289 55.088 177.681 55.168C177.073 55.248 176.545 55.288 176.097 55.288C174.689 55.288 173.601 55.032 172.833 54.52C172.081 54.008 171.705 53.136 171.705 51.904V45.568H169.929V42.328H171.897L172.929 38.488H176.481V42.328H179.169ZM186.161 43.648C186.673 43.136 187.273 42.744 187.961 42.472C188.649 42.184 189.369 42.04 190.121 42.04C191.593 42.04 192.697 42.448 193.433 43.264C194.169 44.08 194.537 45.256 194.537 46.792V55H189.761V47.368C189.761 46.824 189.617 46.392 189.329 46.072C189.057 45.736 188.665 45.568 188.153 45.568C187.561 45.568 187.081 45.76 186.713 46.144C186.345 46.528 186.161 47 186.161 47.56V55H181.385V37.6H186.161V43.648ZM206.033 38.2C207.617 38.2 209.041 38.44 210.305 38.92C211.569 39.4 212.569 40.112 213.305 41.056C214.057 41.984 214.433 43.12 214.433 44.464H209.369C209.369 43.776 209.065 43.224 208.457 42.808C207.849 42.376 207.113 42.16 206.249 42.16C205.001 42.16 204.057 42.496 203.417 43.168C202.777 43.824 202.457 44.76 202.457 45.976V47.512C202.457 48.728 202.777 49.672 203.417 50.344C204.057 51 205.001 51.328 206.249 51.328C207.113 51.328 207.849 51.128 208.457 50.728C209.065 50.312 209.369 49.784 209.369 49.144H205.625V45.784H214.433V55H211.697L211.169 53.368C209.665 54.648 207.697 55.288 205.265 55.288C202.529 55.288 200.473 54.576 199.097 53.152C197.721 51.712 197.033 49.576 197.033 46.744C197.033 43.944 197.809 41.824 199.361 40.384C200.929 38.928 203.153 38.2 206.033 38.2ZM223.937 42.04C226.257 42.04 228.025 42.584 229.241 43.672C230.473 44.76 231.089 46.424 231.089 48.664V49.48H221.585C221.585 50.392 221.785 51.08 222.185 51.544C222.601 52.008 223.249 52.24 224.129 52.24C224.929 52.24 225.513 52.072 225.881 51.736C226.265 51.4 226.457 50.952 226.457 50.392H231.089C231.089 51.928 230.505 53.128 229.337 53.992C228.169 54.856 226.465 55.288 224.225 55.288C221.873 55.288 220.049 54.744 218.753 53.656C217.457 52.552 216.809 50.888 216.809 48.664C216.809 46.488 217.441 44.84 218.705 43.72C219.969 42.6 221.713 42.04 223.937 42.04ZM224.129 45.088C222.625 45.088 221.785 45.8 221.609 47.224H226.265C226.265 46.568 226.073 46.048 225.689 45.664C225.321 45.28 224.801 45.088 224.129 45.088ZM242.129 42.04C243.601 42.04 244.705 42.448 245.441 43.264C246.177 44.08 246.545 45.256 246.545 46.792V55H241.769V47.368C241.769 46.824 241.625 46.392 241.337 46.072C241.065 45.736 240.673 45.568 240.161 45.568C239.569 45.568 239.089 45.76 238.721 46.144C238.353 46.528 238.169 47 238.169 47.56V55H233.393V42.328H237.305L237.617 44.248C238.113 43.576 238.761 43.04 239.561 42.64C240.377 42.24 241.233 42.04 242.129 42.04ZM268.793 55L268.097 52.672H262.313L261.617 55H256.193L262.217 38.488H268.385L274.409 55H268.793ZM263.417 48.976H266.993L265.265 43.096H265.169L263.417 48.976ZM276.649 55V38.488H281.953V55H276.649Z" fill="white"/>
<rect width="93.2969" height="93.2969" fill="#000E17"/>
<rect x="10.1641" y="79.3743" width="97.8822" height="6.46612" rx="3.23306" transform="rotate(-45 10.1641 79.3743)" fill="#282E34"/>
<circle cx="45.2607" cy="47.1103" r="28.6357" fill="#000E17"/>
<rect x="59.1172" y="11.0847" width="23.5723" height="6.46612" rx="3.23306" fill="#282E34"/>
<rect x="82.8281" y="11.2915" width="23.5723" height="6.46612" rx="3.23306" transform="rotate(90 82.8281 11.2915)" fill="#282E34"/>
<circle cx="45.2629" cy="47.1103" r="25.8645" fill="url(#paint0_linear_999_1009)"/>
<circle cx="45.2614" cy="47.1103" r="21.2458" fill="#000E17"/>
<g filter="url(#filter0_b_999_1009)">
<circle cx="32.79" cy="36.4873" r="0.461866" fill="white"/>
</g>
<g filter="url(#filter1_b_999_1009)">
<circle cx="34.6337" cy="35.5634" r="0.461866" fill="white"/>
</g>
<g filter="url(#filter2_b_999_1009)">
<circle cx="36.4853" cy="35.5634" r="0.461866" fill="white"/>
</g>
<circle cx="36.4886" cy="42.9535" r="6.00425" fill="white"/>
<circle cx="36.4872" cy="42.9533" r="4.00284" fill="url(#paint1_linear_999_1009)"/>
<circle cx="53.4964" cy="42.9535" r="6.00425" fill="white"/>
<circle cx="53.495" cy="42.9535" r="4.00284" fill="url(#paint2_linear_999_1009)"/>
<defs>
<filter id="filter0_b_999_1009" x="-98.8719" y="-95.1746" width="263.322" height="263.324" filterUnits="userSpaceOnUse" color-interpolation-filters="sRGB">
<feFlood flood-opacity="0" result="BackgroundImageFix"/>
<feGaussianBlur in="BackgroundImageFix" stdDeviation="65.6"/>
<feComposite in2="SourceAlpha" operator="in" result="effect1_backgroundBlur_999_1009"/>
<feBlend mode="normal" in="SourceGraphic" in2="effect1_backgroundBlur_999_1009" result="shape"/>
</filter>
<filter id="filter1_b_999_1009" x="-97.0281" y="-96.0984" width="263.322" height="263.324" filterUnits="userSpaceOnUse" color-interpolation-filters="sRGB">
<feFlood flood-opacity="0" result="BackgroundImageFix"/>
<feGaussianBlur in="BackgroundImageFix" stdDeviation="65.6"/>
<feComposite in2="SourceAlpha" operator="in" result="effect1_backgroundBlur_999_1009"/>
<feBlend mode="normal" in="SourceGraphic" in2="effect1_backgroundBlur_999_1009" result="shape"/>
</filter>
<filter id="filter2_b_999_1009" x="-95.1766" y="-96.0984" width="263.322" height="263.324" filterUnits="userSpaceOnUse" color-interpolation-filters="sRGB">
<feFlood flood-opacity="0" result="BackgroundImageFix"/>
<feGaussianBlur in="BackgroundImageFix" stdDeviation="65.6"/>
<feComposite in2="SourceAlpha" operator="in" result="effect1_backgroundBlur_999_1009"/>
<feBlend mode="normal" in="SourceGraphic" in2="effect1_backgroundBlur_999_1009" result="shape"/>
</filter>
<linearGradient id="paint0_linear_999_1009" x1="11.5467" y1="29.0976" x2="58.1952" y2="77.1316" gradientUnits="userSpaceOnUse">
<stop stop-color="#4F0001"/>
<stop offset="1" stop-color="#F2243C"/>
</linearGradient>
<linearGradient id="paint1_linear_999_1009" x1="31.2692" y1="40.1656" x2="38.4886" y2="47.5994" gradientUnits="userSpaceOnUse">
<stop stop-color="#4F0001"/>
<stop offset="1" stop-color="#F2243C"/>
</linearGradient>
<linearGradient id="paint2_linear_999_1009" x1="48.277" y1="40.1658" x2="55.4964" y2="47.5997" gradientUnits="userSpaceOnUse">
<stop stop-color="#4F0001"/>
<stop offset="1" stop-color="#F2243C"/>
</linearGradient>
</defs>
</svg>
