<?xml version="1.0" encoding="utf-8"?>
<!-- Generator: Adobe Illustrator 28.1.0, SVG Export Plug-In . SVG Version: 6.00 Build 0)  -->
<svg version="1.1" id="Layer_1" xmlns="http://www.w3.org/2000/svg" xmlns:xlink="http://www.w3.org/1999/xlink" x="0px" y="0px"
	 viewBox="0 0 318.55 33.07" style="enable-background:new 0 0 318.55 33.07;" xml:space="preserve">
<style type="text/css">
	.st0{fill:#FFFFFF;}
</style>
<g>
	<path class="st0" d="M32.05,21.61v11.41h-4.92v-1.82c-1.35,1.19-3.04,1.82-4.83,1.82H8.59c-3.67,0-6.77-2.73-7.24-6.37
		C1,24.22,1,21.74,1.35,19.29c0.47-3.64,3.57-6.37,7.24-6.37h16.02c3.67,0,6.77,2.73,7.24,6.37c0.06,0.31,0.09,0.63,0.13,0.94h-8.4
		c-0.41-1.1-1.44-1.82-2.6-1.82c-2.38,0-6.37,0-8.78,0c-1.29,0-2.41,0.91-2.67,2.2c-0.35,1.57-0.31,3.17,0,4.74
		c0.25,1.29,1.38,2.2,2.7,2.2c2.38,0,6.37,0,8.75,0c1.32,0,2.45-0.91,2.7-2.23l0.03-0.03c0-0.03,0-0.03,0-0.03h-7.18v-3.64H32.05z"
		/>
	<path class="st0" d="M64.81,33.03h-8.75l-3.79-4.92h-8.25v4.92h-7.9v-20.1h20.45c3.67,0,6.77,2.73,7.24,6.37
		c0.09,0.82,0.09,1.63,0,2.41c-0.28,2.35-1.72,4.42-3.79,5.52L64.81,33.03z M55.44,21.55c0.41-0.63,0.41-1.44,0-2.1
		c-0.38-0.66-1.1-1.07-1.85-1.03h-9.56v4.2h9.56C54.34,22.62,55.06,22.21,55.44,21.55z"/>
	<path class="st0" d="M138.01,0.5l-13.48,32.57h-7.15l-3.86-9.53l-3.86,9.53h-7.15l-8.97-16.28h8.56l4.36,7.63l4.17-7.63h5.77
		l4.17,7.63l8.87-23.91H138.01z"/>
	<path class="st0" d="M161.89,12.93v5.49h-9.44v14.61h-7.9V18.42h-9.41v-5.49H161.89z"/>
	<path class="st0" d="M193.12,12.93v20.1h-7.9v-7.31h-12.51v7.31h-7.9v-20.1h7.9v7.31h12.51v-7.31H193.12z"/>
	<path class="st0" d="M227.8,21.61v11.41h-4.92v-1.82c-1.35,1.19-3.04,1.82-4.83,1.82h-13.7c-3.67,0-6.77-2.73-7.24-6.37
		c-0.35-2.45-0.35-4.92,0-7.37c0.47-3.64,3.57-6.37,7.24-6.37h16.02c3.67,0,6.77,2.73,7.24,6.37c0.06,0.31,0.09,0.63,0.13,0.94h-8.4
		c-0.41-1.1-1.44-1.82-2.6-1.82c-2.38,0-6.37,0-8.78,0c-1.29,0-2.42,0.91-2.67,2.2c-0.34,1.57-0.31,3.17,0,4.74
		c0.25,1.29,1.38,2.2,2.7,2.2c2.38,0,6.37,0,8.75,0c1.32,0,2.45-0.91,2.7-2.23l0.03-0.03c0-0.03,0-0.03,0-0.03h-7.18v-3.64H227.8z"
		/>
	<path class="st0" d="M239.78,18.13v2.38h18.28v4.92h-18.28v2.38h18.28v5.21h-26.19v-20.1h26.19v5.21H239.78z"/>
	<path class="st0" d="M290.61,12.93v20.1h-9.47l-10.88-11.98v11.98h-7.9v-20.1h9.47l10.85,11.98V12.93H290.61z"/>
	<path class="st0" d="M312.5,22.59h-5.65l-1.08-1.99h-6.09l-1.1,1.99h-5.63l7.48-11.72h4.59L312.5,22.59z M304.31,17.95l-1.59-2.91
		l-1.57,2.91H304.31z"/>
	<path class="st0" d="M313.95,22.59V10.87h4.61v11.72H313.95z"/>
	<g>
		<path class="st0" d="M91.71,22.56c-0.37,2.58-2.84,4.5-5.77,4.5H73.23c-2.91,0-5.37-1.92-5.75-4.47c-0.27-1.72-0.27-3.46,0-5.18
			c0.37-2.56,2.84-4.47,5.75-4.47h12.71c2.91,0,5.37,1.92,5.75,4.47C91.96,19.12,91.96,20.86,91.71,22.56z M85.19,18.33
			c-0.2-0.9-1.09-1.54-2.14-1.54c-1.89,0-5.05,0-6.96,0c-1.02,0-1.92,0.64-2.11,1.54c-0.27,1.1-0.25,2.23,0,3.33
			c0.2,0.9,1.09,1.54,2.14,1.54c1.89,0,5.05,0,6.94,0c1.04,0,1.94-0.64,2.14-1.54C85.44,20.55,85.44,19.43,85.19,18.33z"/>
		<path class="st0" d="M87.52,33.03H71.65c-0.94,0-1.69-0.76-1.69-1.69v-1.35c0-0.94,0.76-1.7,1.69-1.7h15.86
			c0.94,0,1.69,0.76,1.69,1.7v1.35C89.21,32.27,88.45,33.03,87.52,33.03z"/>
		<path class="st0" d="M87.11,10.72h-1.15c-0.34,0-0.62-0.28-0.62-0.62V9.66c0-0.34,0.28-0.62,0.62-0.62h1.15
			c0.34,0,0.62,0.28,0.62,0.62v0.44C87.73,10.44,87.46,10.72,87.11,10.72z"/>
		<path class="st0" d="M73.21,10.72h-1.16c-0.34,0-0.62-0.28-0.62-0.62V9.65c0-0.34,0.28-0.62,0.62-0.62h1.16
			c0.34,0,0.62,0.28,0.62,0.62v0.45C73.82,10.45,73.55,10.72,73.21,10.72z"/>
	</g>
</g>
</svg>
