<svg width="384" height="246" viewBox="0 0 384 246" fill="none" xmlns="http://www.w3.org/2000/svg">
<path d="M244.195 120.609C241.886 107.278 237.236 94.4615 230.46 82.7519C223.81 70.9829 215.162 60.4618 204.903 51.6602L204.22 51.1135C204.084 50.9837 203.996 50.8114 203.971 50.625C203.946 50.4387 203.986 50.2495 204.083 50.0885L214.265 32.3902C214.936 31.2268 215.29 29.907 215.29 28.5635C215.29 27.2201 214.936 25.9003 214.265 24.7369C213.599 23.5727 212.633 22.6093 211.466 21.9479C210.3 21.2865 208.977 20.9517 207.636 20.9785H166.363C165.023 20.9575 163.703 21.2948 162.537 21.9556C161.372 22.6164 160.404 23.5766 159.735 24.7369C159.063 25.9003 158.709 27.2201 158.709 28.5635C158.709 29.907 159.063 31.2268 159.735 32.3902L169.985 50.0885C170.07 50.2577 170.096 50.4506 170.059 50.6364C170.022 50.8222 169.923 50.9902 169.78 51.1135L169.165 51.6602C148.501 69.4283 134.599 93.7809 129.805 120.609C129.648 121.695 129.557 122.791 129.531 123.889C129.531 128.963 131.547 133.83 135.135 137.418C138.723 141.006 143.59 143.022 148.665 143.022H225.403C228.176 143.024 230.915 142.419 233.429 141.251C235.944 140.082 238.172 138.378 239.958 136.257C241.753 134.11 243.061 131.599 243.792 128.897C244.524 126.196 244.661 123.368 244.195 120.609ZM165.68 28.9735C165.591 28.8553 165.543 28.7114 165.543 28.5635C165.543 28.4157 165.591 28.2718 165.68 28.1535C165.75 28.0386 165.852 27.9457 165.973 27.8853C166.093 27.8249 166.228 27.7995 166.363 27.8119H207.636C207.779 27.8105 207.92 27.8404 208.05 27.8994C208.18 27.9584 208.295 28.0452 208.388 28.1535C208.492 28.4169 208.492 28.7102 208.388 28.9735L197.523 48.1069H176.476L165.68 28.9735ZM200.461 56.8535C219.856 73.6298 232.925 96.5377 237.498 121.77C237.797 123.543 237.707 125.359 237.235 127.093C236.763 128.827 235.92 130.438 234.765 131.815C233.619 133.185 232.187 134.286 230.569 135.041C228.952 135.797 227.188 136.189 225.403 136.189H148.665C145.405 136.18 142.282 134.881 139.977 132.576C137.672 130.271 136.374 127.148 136.365 123.889C136.365 123.177 136.434 122.468 136.57 121.77C141.063 96.5088 154.146 73.576 173.606 56.8535L175.793 54.9402H198.206L200.461 56.8535Z" fill="white"/>
<path d="M157.598 110.723C157.885 110.533 158.238 110.361 158.647 110.229V113.371C158.276 113.255 157.923 113.088 157.598 112.877C156.926 112.429 156.797 112.011 156.797 111.8C156.797 111.589 156.926 111.171 157.598 110.723ZM162.347 120.771V117.629C162.754 117.761 163.109 117.933 163.396 118.123C164.069 118.573 164.197 118.989 164.197 119.2C164.197 119.411 164.067 119.829 163.396 120.277C163.07 120.488 162.717 120.655 162.347 120.771Z" fill="white"/>
<path fill-rule="evenodd" clip-rule="evenodd" d="M160.503 130.3C164.428 130.3 168.193 128.741 170.968 125.965C173.744 123.19 175.303 119.425 175.303 115.5C175.303 111.575 173.744 107.811 170.968 105.035C168.193 102.259 164.428 100.7 160.503 100.7C156.578 100.7 152.813 102.259 150.038 105.035C147.262 107.811 145.703 111.575 145.703 115.5C145.703 119.425 147.262 123.19 150.038 125.965C152.813 128.741 156.578 130.3 160.503 130.3ZM162.353 106.25C162.353 105.76 162.158 105.289 161.811 104.942C161.464 104.595 160.994 104.4 160.503 104.4C160.012 104.4 159.542 104.595 159.195 104.942C158.848 105.289 158.653 105.76 158.653 106.25V106.42C157.548 106.617 156.494 107.034 155.553 107.645C154.217 108.533 153.103 109.967 153.103 111.8C153.103 113.632 154.217 115.065 155.553 115.955C156.441 116.547 157.502 116.964 158.653 117.18V120.771C157.93 120.536 157.395 120.184 157.094 119.838C156.937 119.646 156.744 119.488 156.525 119.372C156.306 119.256 156.066 119.185 155.819 119.164C155.572 119.143 155.323 119.171 155.088 119.248C154.852 119.324 154.634 119.447 154.447 119.61C154.26 119.772 154.107 119.97 153.998 120.193C153.889 120.415 153.826 120.657 153.812 120.905C153.799 121.152 153.835 121.4 153.918 121.633C154.002 121.866 154.132 122.08 154.3 122.262C155.34 123.463 156.914 124.253 158.653 124.58V124.75C158.653 125.241 158.848 125.711 159.195 126.058C159.542 126.405 160.012 126.6 160.503 126.6C160.994 126.6 161.464 126.405 161.811 126.058C162.158 125.711 162.353 125.241 162.353 124.75V124.58C163.458 124.383 164.513 123.967 165.454 123.355C166.789 122.467 167.903 121.034 167.903 119.2C167.903 117.369 166.789 115.935 165.454 115.045C164.513 114.434 163.458 114.017 162.353 113.82V110.23C163.076 110.464 163.611 110.816 163.913 111.162C164.071 111.349 164.264 111.504 164.482 111.615C164.7 111.727 164.939 111.795 165.183 111.814C165.427 111.833 165.673 111.804 165.906 111.727C166.139 111.65 166.354 111.528 166.539 111.368C166.724 111.207 166.876 111.011 166.985 110.792C167.094 110.572 167.158 110.333 167.173 110.088C167.189 109.844 167.156 109.598 167.076 109.367C166.996 109.135 166.871 108.921 166.708 108.738C165.666 107.538 164.094 106.748 162.353 106.42V106.25Z" fill="white"/>
<path d="M183.598 74.7234C183.885 74.5329 184.238 74.3608 184.647 74.2295V77.3708C184.276 77.2547 183.923 77.0885 183.598 76.8768C182.926 76.4291 182.797 76.011 182.797 75.8001C182.797 75.5892 182.926 75.1711 183.598 74.7234ZM188.347 84.7708V81.6295C188.754 81.7608 189.109 81.9329 189.396 82.1234C190.069 82.573 190.197 82.9892 190.197 83.2001C190.197 83.411 190.067 83.8291 189.396 84.2768C189.07 84.4885 188.717 84.6547 188.347 84.7708Z" fill="white"/>
<path fill-rule="evenodd" clip-rule="evenodd" d="M186.503 94.3002C190.428 94.3002 194.193 92.7409 196.968 89.9654C199.744 87.1898 201.303 83.4254 201.303 79.5002C201.303 75.575 199.744 71.8106 196.968 69.035C194.193 66.2595 190.428 64.7002 186.503 64.7002C182.578 64.7002 178.813 66.2595 176.038 69.035C173.262 71.8106 171.703 75.575 171.703 79.5002C171.703 83.4254 173.262 87.1898 176.038 89.9654C178.813 92.7409 182.578 94.3002 186.503 94.3002ZM188.353 70.2502C188.353 69.7595 188.158 69.289 187.811 68.942C187.464 68.5951 186.994 68.4002 186.503 68.4002C186.012 68.4002 185.542 68.5951 185.195 68.942C184.848 69.289 184.653 69.7595 184.653 70.2502V70.4204C183.548 70.6171 182.494 71.0336 181.553 71.6451C180.217 72.5331 179.103 73.9668 179.103 75.8002C179.103 77.6317 180.217 79.0654 181.553 79.9553C182.441 80.5473 183.502 80.9635 184.653 81.18V84.7708C183.93 84.5359 183.395 84.1844 183.094 83.8384C182.937 83.6464 182.744 83.4877 182.525 83.3719C182.306 83.256 182.066 83.1853 181.819 83.164C181.572 83.1427 181.323 83.1711 181.088 83.2477C180.852 83.3243 180.634 83.4474 180.447 83.6097C180.26 83.7721 180.107 83.9703 179.998 84.1928C179.889 84.4152 179.826 84.6573 179.812 84.9047C179.799 85.1521 179.835 85.3997 179.918 85.6328C180.002 85.866 180.132 86.0799 180.3 86.2619C181.34 87.4626 182.914 88.2525 184.653 88.58V88.7502C184.653 89.2408 184.848 89.7114 185.195 90.0583C185.542 90.4053 186.012 90.6002 186.503 90.6002C186.994 90.6002 187.464 90.4053 187.811 90.0583C188.158 89.7114 188.353 89.2408 188.353 88.7502V88.58C189.458 88.3833 190.513 87.9668 191.454 87.3553C192.789 86.4673 193.903 85.0335 193.903 83.2002C193.903 81.3687 192.789 79.9349 191.454 79.0451C190.513 78.4336 189.458 78.0171 188.353 77.8204V74.2295C189.076 74.4645 189.611 74.816 189.913 75.1619C190.071 75.3494 190.264 75.5035 190.482 75.6155C190.7 75.7274 190.939 75.7949 191.183 75.8141C191.427 75.8332 191.673 75.8036 191.906 75.7269C192.139 75.6502 192.354 75.5281 192.539 75.3675C192.724 75.2069 192.876 75.0112 192.985 74.7916C193.094 74.572 193.158 74.3329 193.173 74.0883C193.189 73.8437 193.156 73.5984 193.076 73.3667C192.996 73.1349 192.871 72.9214 192.708 72.7384C191.666 71.5378 190.094 70.7478 188.353 70.4204V70.2502Z" fill="white"/>
<path d="M209.598 111.723C209.885 111.533 210.238 111.361 210.647 111.229V114.371C210.276 114.255 209.923 114.088 209.598 113.877C208.926 113.429 208.797 113.011 208.797 112.8C208.797 112.589 208.926 112.171 209.598 111.723ZM214.347 121.771V118.629C214.754 118.761 215.109 118.933 215.396 119.123C216.069 119.573 216.197 119.989 216.197 120.2C216.197 120.411 216.067 120.829 215.396 121.277C215.07 121.488 214.717 121.655 214.347 121.771Z" fill="white"/>
<path fill-rule="evenodd" clip-rule="evenodd" d="M212.503 131.3C216.428 131.3 220.193 129.741 222.968 126.965C225.744 124.19 227.303 120.425 227.303 116.5C227.303 112.575 225.744 108.811 222.968 106.035C220.193 103.259 216.428 101.7 212.503 101.7C208.578 101.7 204.813 103.259 202.038 106.035C199.262 108.811 197.703 112.575 197.703 116.5C197.703 120.425 199.262 124.19 202.038 126.965C204.813 129.741 208.578 131.3 212.503 131.3ZM214.353 107.25C214.353 106.76 214.158 106.289 213.811 105.942C213.464 105.595 212.994 105.4 212.503 105.4C212.012 105.4 211.542 105.595 211.195 105.942C210.848 106.289 210.653 106.76 210.653 107.25V107.42C209.548 107.617 208.494 108.034 207.553 108.645C206.217 109.533 205.103 110.967 205.103 112.8C205.103 114.632 206.217 116.065 207.553 116.955C208.441 117.547 209.502 117.964 210.653 118.18V121.771C209.93 121.536 209.395 121.184 209.094 120.838C208.937 120.646 208.744 120.488 208.525 120.372C208.306 120.256 208.066 120.185 207.819 120.164C207.572 120.143 207.323 120.171 207.088 120.248C206.852 120.324 206.634 120.447 206.447 120.61C206.26 120.772 206.107 120.97 205.998 121.193C205.889 121.415 205.826 121.657 205.812 121.905C205.799 122.152 205.835 122.4 205.918 122.633C206.002 122.866 206.132 123.08 206.3 123.262C207.34 124.463 208.914 125.253 210.653 125.58V125.75C210.653 126.241 210.848 126.711 211.195 127.058C211.542 127.405 212.012 127.6 212.503 127.6C212.994 127.6 213.464 127.405 213.811 127.058C214.158 126.711 214.353 126.241 214.353 125.75V125.58C215.458 125.383 216.513 124.967 217.454 124.355C218.789 123.467 219.903 122.034 219.903 120.2C219.903 118.369 218.789 116.935 217.454 116.045C216.513 115.434 215.458 115.017 214.353 114.82V111.23C215.076 111.464 215.611 111.816 215.913 112.162C216.071 112.349 216.264 112.504 216.482 112.615C216.7 112.727 216.939 112.795 217.183 112.814C217.427 112.833 217.673 112.804 217.906 112.727C218.139 112.65 218.354 112.528 218.539 112.368C218.724 112.207 218.876 112.011 218.985 111.792C219.094 111.572 219.158 111.333 219.173 111.088C219.189 110.844 219.156 110.598 219.076 110.367C218.996 110.135 218.871 109.921 218.708 109.738C217.666 108.538 216.094 107.748 214.353 107.42V107.25Z" fill="white"/>
<path d="M139.195 199.609C136.886 186.278 132.236 173.461 125.46 161.752C118.81 149.983 110.162 139.462 99.9029 130.66L99.2196 130.114C99.0837 129.984 98.9961 129.811 98.9712 129.625C98.9464 129.439 98.9858 129.249 99.0829 129.089L109.265 111.39C109.936 110.227 110.29 108.907 110.29 107.564C110.29 106.22 109.936 104.9 109.265 103.737C108.599 102.573 107.633 101.609 106.466 100.948C105.3 100.287 103.977 99.9517 102.636 99.9785H61.3629C60.0234 99.9575 58.7026 100.295 57.5372 100.956C56.3719 101.616 55.4043 102.577 54.7346 103.737C54.0629 104.9 53.7092 106.22 53.7092 107.564C53.7092 108.907 54.0629 110.227 54.7346 111.39L64.9846 129.089C65.0699 129.258 65.0961 129.451 65.059 129.636C65.0218 129.822 64.9234 129.99 64.7796 130.114L64.1646 130.66C43.5006 148.428 29.5986 172.781 24.8046 199.609C24.6485 200.695 24.5572 201.791 24.5312 202.889C24.5312 207.963 26.5471 212.83 30.1353 216.418C33.7235 220.006 38.5901 222.022 43.6646 222.022H120.403C123.176 222.024 125.915 221.419 128.429 220.251C130.944 219.082 133.172 217.378 134.958 215.257C136.753 213.11 138.061 210.599 138.792 207.897C139.524 205.196 139.661 202.368 139.195 199.609ZM60.6796 107.974C60.5909 107.855 60.5429 107.711 60.5429 107.564C60.5429 107.416 60.5909 107.272 60.6796 107.154C60.7503 107.039 60.8518 106.946 60.9725 106.885C61.0933 106.825 61.2285 106.799 61.3629 106.812H102.636C102.779 106.811 102.92 106.84 103.05 106.899C103.18 106.958 103.295 107.045 103.388 107.154C103.492 107.417 103.492 107.71 103.388 107.974L92.5229 127.107H71.4762L60.6796 107.974ZM95.4612 135.854C114.856 152.63 127.925 175.538 132.498 200.77C132.797 202.543 132.707 204.359 132.235 206.093C131.763 207.827 130.92 209.438 129.765 210.815C128.619 212.185 127.187 213.286 125.569 214.041C123.952 214.797 122.188 215.189 120.403 215.189H43.6646C40.4052 215.18 37.2819 213.881 34.9771 211.576C32.6724 209.271 31.3736 206.148 31.3646 202.889C31.3651 202.177 31.4337 201.468 31.5696 200.77C36.0626 175.509 49.1464 152.576 68.6062 135.854L70.7929 133.94H93.2062L95.4612 135.854Z" fill="white"/>
<path d="M52.5979 189.723C52.8847 189.533 53.238 189.361 53.6469 189.229V192.371C53.2764 192.254 52.9235 192.088 52.5979 191.877C51.9264 191.429 51.7969 191.011 51.7969 190.8C51.7969 190.589 51.9264 190.171 52.5979 189.723ZM57.3469 199.771V196.629C57.7539 196.761 58.1091 196.933 58.3958 197.123C59.0692 197.573 59.1969 197.989 59.1969 198.2C59.1969 198.411 59.0674 198.829 58.3958 199.277C58.0703 199.488 57.7174 199.654 57.3469 199.771Z" fill="white"/>
<path fill-rule="evenodd" clip-rule="evenodd" d="M55.5031 209.3C59.4283 209.3 63.1928 207.741 65.9683 204.965C68.7438 202.19 70.3031 198.425 70.3031 194.5C70.3031 190.575 68.7438 186.81 65.9683 184.035C63.1928 181.259 59.4283 179.7 55.5031 179.7C51.5779 179.7 47.8135 181.259 45.0379 184.035C42.2624 186.81 40.7031 190.575 40.7031 194.5C40.7031 198.425 42.2624 202.19 45.0379 204.965C47.8135 207.741 51.5779 209.3 55.5031 209.3ZM57.3531 185.25C57.3531 184.759 57.1582 184.289 56.8113 183.942C56.4643 183.595 55.9938 183.4 55.5031 183.4C55.0125 183.4 54.5419 183.595 54.195 183.942C53.848 184.289 53.6531 184.759 53.6531 185.25V185.42C52.5481 185.617 51.4937 186.033 50.5525 186.645C49.2168 187.533 48.1031 188.967 48.1031 190.8C48.1031 192.631 49.2168 194.065 50.5525 194.955C51.4405 195.547 52.5024 195.963 53.6531 196.18V199.771C52.9298 199.536 52.3951 199.184 52.0936 198.838C51.9371 198.646 51.7436 198.487 51.5246 198.372C51.3056 198.256 51.0656 198.185 50.8188 198.164C50.5719 198.142 50.3233 198.171 50.0877 198.247C49.8521 198.324 49.6343 198.447 49.4471 198.609C49.26 198.772 49.1074 198.97 48.9983 199.193C48.8893 199.415 48.826 199.657 48.8123 199.904C48.7986 200.152 48.8347 200.399 48.9185 200.633C49.0023 200.866 49.132 201.08 49.3001 201.262C50.3398 202.462 51.9141 203.252 53.6531 203.58V203.75C53.6531 204.241 53.848 204.711 54.195 205.058C54.5419 205.405 55.0125 205.6 55.5031 205.6C55.9938 205.6 56.4643 205.405 56.8113 205.058C57.1582 204.711 57.3531 204.241 57.3531 203.75V203.58C58.4582 203.383 59.5125 202.967 60.4537 202.355C61.7894 201.467 62.9031 200.033 62.9031 198.2C62.9031 196.368 61.7894 194.935 60.4537 194.045C59.5125 193.433 58.4582 193.017 57.3531 192.82V189.229C58.0765 189.464 58.6111 189.816 58.9127 190.162C59.0706 190.349 59.2643 190.503 59.4823 190.615C59.7004 190.727 59.9385 190.795 60.1829 190.814C60.4273 190.833 60.673 190.803 60.9058 190.727C61.1387 190.65 61.3539 190.528 61.5391 190.367C61.7243 190.207 61.8758 190.011 61.9847 189.791C62.0936 189.572 62.1577 189.333 62.1735 189.088C62.1892 188.843 62.1561 188.598 62.0762 188.366C61.9963 188.135 61.8712 187.921 61.708 187.738C60.6665 186.538 59.094 185.748 57.3531 185.42V185.25Z" fill="white"/>
<path d="M78.5979 153.723C78.8847 153.533 79.238 153.361 79.6469 153.229V156.371C79.2764 156.255 78.9235 156.088 78.5979 155.877C77.9264 155.429 77.7969 155.011 77.7969 154.8C77.7969 154.589 77.9264 154.171 78.5979 153.723ZM83.3469 163.771V160.629C83.7539 160.761 84.1091 160.933 84.3958 161.123C85.0692 161.573 85.1969 161.989 85.1969 162.2C85.1969 162.411 85.0674 162.829 84.3958 163.277C84.0703 163.488 83.7174 163.655 83.3469 163.771Z" fill="white"/>
<path fill-rule="evenodd" clip-rule="evenodd" d="M81.5031 173.3C85.4283 173.3 89.1928 171.741 91.9683 168.965C94.7438 166.19 96.3031 162.425 96.3031 158.5C96.3031 154.575 94.7438 150.811 91.9683 148.035C89.1928 145.259 85.4283 143.7 81.5031 143.7C77.5779 143.7 73.8135 145.259 71.0379 148.035C68.2624 150.811 66.7031 154.575 66.7031 158.5C66.7031 162.425 68.2624 166.19 71.0379 168.965C73.8135 171.741 77.5779 173.3 81.5031 173.3ZM83.3531 149.25C83.3531 148.76 83.1582 148.289 82.8113 147.942C82.4643 147.595 81.9938 147.4 81.5031 147.4C81.0125 147.4 80.5419 147.595 80.195 147.942C79.848 148.289 79.6531 148.76 79.6531 149.25V149.42C78.5481 149.617 77.4937 150.034 76.5525 150.645C75.2168 151.533 74.1031 152.967 74.1031 154.8C74.1031 156.632 75.2168 158.065 76.5525 158.955C77.4405 159.547 78.5024 159.964 79.6531 160.18V163.771C78.9298 163.536 78.3951 163.184 78.0936 162.838C77.9371 162.646 77.7436 162.488 77.5246 162.372C77.3056 162.256 77.0656 162.185 76.8188 162.164C76.5719 162.143 76.3233 162.171 76.0877 162.248C75.8521 162.324 75.6343 162.447 75.4471 162.61C75.26 162.772 75.1074 162.97 74.9983 163.193C74.8893 163.415 74.826 163.657 74.8123 163.905C74.7986 164.152 74.8347 164.4 74.9185 164.633C75.0023 164.866 75.132 165.08 75.3001 165.262C76.3398 166.463 77.9141 167.253 79.6531 167.58V167.75C79.6531 168.241 79.848 168.711 80.195 169.058C80.5419 169.405 81.0125 169.6 81.5031 169.6C81.9938 169.6 82.4643 169.405 82.8113 169.058C83.1582 168.711 83.3531 168.241 83.3531 167.75V167.58C84.4582 167.383 85.5125 166.967 86.4537 166.355C87.7894 165.467 88.9031 164.034 88.9031 162.2C88.9031 160.369 87.7894 158.935 86.4537 158.045C85.5125 157.434 84.4582 157.017 83.3531 156.82V153.23C84.0765 153.464 84.6111 153.816 84.9127 154.162C85.0706 154.349 85.2643 154.504 85.4823 154.615C85.7004 154.727 85.9385 154.795 86.1829 154.814C86.4273 154.833 86.673 154.804 86.9058 154.727C87.1387 154.65 87.3539 154.528 87.5391 154.368C87.7243 154.207 87.8758 154.011 87.9847 153.792C88.0936 153.572 88.1577 153.333 88.1735 153.088C88.1892 152.844 88.1561 152.598 88.0762 152.367C87.9963 152.135 87.8712 151.921 87.708 151.738C86.6665 150.538 85.094 149.748 83.3531 149.42V149.25Z" fill="white"/>
<path d="M104.598 190.723C104.885 190.533 105.238 190.361 105.647 190.229V193.371C105.276 193.254 104.923 193.088 104.598 192.877C103.926 192.429 103.797 192.011 103.797 191.8C103.797 191.589 103.926 191.171 104.598 190.723ZM109.347 200.771V197.629C109.754 197.761 110.109 197.933 110.396 198.123C111.069 198.573 111.197 198.989 111.197 199.2C111.197 199.411 111.067 199.829 110.396 200.277C110.07 200.488 109.717 200.654 109.347 200.771Z" fill="white"/>
<path fill-rule="evenodd" clip-rule="evenodd" d="M107.503 210.3C111.428 210.3 115.193 208.741 117.968 205.965C120.744 203.19 122.303 199.425 122.303 195.5C122.303 191.575 120.744 187.81 117.968 185.035C115.193 182.259 111.428 180.7 107.503 180.7C103.578 180.7 99.8135 182.259 97.0379 185.035C94.2624 187.81 92.7031 191.575 92.7031 195.5C92.7031 199.425 94.2624 203.19 97.0379 205.965C99.8135 208.741 103.578 210.3 107.503 210.3ZM109.353 186.25C109.353 185.759 109.158 185.289 108.811 184.942C108.464 184.595 107.994 184.4 107.503 184.4C107.012 184.4 106.542 184.595 106.195 184.942C105.848 185.289 105.653 185.759 105.653 186.25V186.42C104.548 186.617 103.494 187.033 102.553 187.645C101.217 188.533 100.103 189.967 100.103 191.8C100.103 193.631 101.217 195.065 102.553 195.955C103.441 196.547 104.502 196.963 105.653 197.18V200.771C104.93 200.536 104.395 200.184 104.094 199.838C103.937 199.646 103.744 199.487 103.525 199.372C103.306 199.256 103.066 199.185 102.819 199.164C102.572 199.142 102.323 199.171 102.088 199.247C101.852 199.324 101.634 199.447 101.447 199.609C101.26 199.772 101.107 199.97 100.998 200.193C100.889 200.415 100.826 200.657 100.812 200.904C100.799 201.152 100.835 201.399 100.918 201.633C101.002 201.866 101.132 202.08 101.3 202.262C102.34 203.462 103.914 204.252 105.653 204.58V204.75C105.653 205.241 105.848 205.711 106.195 206.058C106.542 206.405 107.012 206.6 107.503 206.6C107.994 206.6 108.464 206.405 108.811 206.058C109.158 205.711 109.353 205.241 109.353 204.75V204.58C110.458 204.383 111.513 203.967 112.454 203.355C113.789 202.467 114.903 201.033 114.903 199.2C114.903 197.368 113.789 195.935 112.454 195.045C111.513 194.433 110.458 194.017 109.353 193.82V190.229C110.076 190.464 110.611 190.816 110.913 191.162C111.071 191.349 111.264 191.503 111.482 191.615C111.7 191.727 111.939 191.795 112.183 191.814C112.427 191.833 112.673 191.803 112.906 191.727C113.139 191.65 113.354 191.528 113.539 191.367C113.724 191.207 113.876 191.011 113.985 190.791C114.094 190.572 114.158 190.333 114.173 190.088C114.189 189.843 114.156 189.598 114.076 189.366C113.996 189.135 113.871 188.921 113.708 188.738C112.666 187.538 111.094 186.748 109.353 186.42V186.25Z" fill="white"/>
<path d="M359.195 202.609C356.886 189.278 352.236 176.461 345.46 164.752C338.81 152.983 330.162 142.462 319.903 133.66L319.22 133.114C319.084 132.984 318.996 132.811 318.971 132.625C318.946 132.439 318.986 132.249 319.083 132.089L329.265 114.39C329.936 113.227 330.29 111.907 330.29 110.564C330.29 109.22 329.936 107.9 329.265 106.737C328.599 105.573 327.633 104.609 326.466 103.948C325.3 103.287 323.977 102.952 322.636 102.979H281.363C280.023 102.957 278.703 103.295 277.537 103.956C276.372 104.616 275.404 105.577 274.735 106.737C274.063 107.9 273.709 109.22 273.709 110.564C273.709 111.907 274.063 113.227 274.735 114.39L284.985 132.089C285.07 132.258 285.096 132.451 285.059 132.636C285.022 132.822 284.923 132.99 284.78 133.114L284.165 133.66C263.501 151.428 249.599 175.781 244.805 202.609C244.648 203.695 244.557 204.791 244.531 205.889C244.531 210.963 246.547 215.83 250.135 219.418C253.723 223.006 258.59 225.022 263.665 225.022H340.403C343.176 225.024 345.915 224.419 348.429 223.251C350.944 222.082 353.172 220.378 354.958 218.257C356.753 216.11 358.061 213.599 358.792 210.897C359.524 208.196 359.661 205.368 359.195 202.609ZM280.68 110.974C280.591 110.855 280.543 110.711 280.543 110.564C280.543 110.416 280.591 110.272 280.68 110.154C280.75 110.039 280.852 109.946 280.973 109.885C281.093 109.825 281.228 109.799 281.363 109.812H322.636C322.779 109.811 322.92 109.84 323.05 109.899C323.18 109.958 323.295 110.045 323.388 110.154C323.492 110.417 323.492 110.71 323.388 110.974L312.523 130.107H291.476L280.68 110.974ZM315.461 138.854C334.856 155.63 347.925 178.538 352.498 203.77C352.797 205.543 352.707 207.359 352.235 209.093C351.763 210.827 350.92 212.438 349.765 213.815C348.619 215.185 347.187 216.286 345.569 217.041C343.952 217.797 342.188 218.189 340.403 218.189H263.665C260.405 218.18 257.282 216.881 254.977 214.576C252.672 212.271 251.374 209.148 251.365 205.889C251.365 205.177 251.434 204.468 251.57 203.77C256.063 178.509 269.146 155.576 288.606 138.854L290.793 136.94H313.206L315.461 138.854Z" fill="white"/>
<path d="M272.598 192.723C272.885 192.533 273.238 192.361 273.647 192.229V195.371C273.276 195.254 272.923 195.088 272.598 194.877C271.926 194.429 271.797 194.011 271.797 193.8C271.797 193.589 271.926 193.171 272.598 192.723ZM277.347 202.771V199.629C277.754 199.761 278.109 199.933 278.396 200.123C279.069 200.573 279.197 200.989 279.197 201.2C279.197 201.411 279.067 201.829 278.396 202.277C278.07 202.488 277.717 202.654 277.347 202.771Z" fill="white"/>
<path fill-rule="evenodd" clip-rule="evenodd" d="M275.503 212.3C279.428 212.3 283.193 210.741 285.968 207.965C288.744 205.19 290.303 201.425 290.303 197.5C290.303 193.575 288.744 189.81 285.968 187.035C283.193 184.259 279.428 182.7 275.503 182.7C271.578 182.7 267.813 184.259 265.038 187.035C262.262 189.81 260.703 193.575 260.703 197.5C260.703 201.425 262.262 205.19 265.038 207.965C267.813 210.741 271.578 212.3 275.503 212.3ZM277.353 188.25C277.353 187.759 277.158 187.289 276.811 186.942C276.464 186.595 275.994 186.4 275.503 186.4C275.012 186.4 274.542 186.595 274.195 186.942C273.848 187.289 273.653 187.759 273.653 188.25V188.42C272.548 188.617 271.494 189.033 270.553 189.645C269.217 190.533 268.103 191.967 268.103 193.8C268.103 195.631 269.217 197.065 270.553 197.955C271.441 198.547 272.502 198.963 273.653 199.18V202.771C272.93 202.536 272.395 202.184 272.094 201.838C271.937 201.646 271.744 201.487 271.525 201.372C271.306 201.256 271.066 201.185 270.819 201.164C270.572 201.142 270.323 201.171 270.088 201.247C269.852 201.324 269.634 201.447 269.447 201.609C269.26 201.772 269.107 201.97 268.998 202.193C268.889 202.415 268.826 202.657 268.812 202.904C268.799 203.152 268.835 203.399 268.918 203.633C269.002 203.866 269.132 204.08 269.3 204.262C270.34 205.462 271.914 206.252 273.653 206.58V206.75C273.653 207.241 273.848 207.711 274.195 208.058C274.542 208.405 275.012 208.6 275.503 208.6C275.994 208.6 276.464 208.405 276.811 208.058C277.158 207.711 277.353 207.241 277.353 206.75V206.58C278.458 206.383 279.513 205.967 280.454 205.355C281.789 204.467 282.903 203.033 282.903 201.2C282.903 199.368 281.789 197.935 280.454 197.045C279.513 196.433 278.458 196.017 277.353 195.82V192.229C278.076 192.464 278.611 192.816 278.913 193.162C279.071 193.349 279.264 193.503 279.482 193.615C279.7 193.727 279.939 193.795 280.183 193.814C280.427 193.833 280.673 193.803 280.906 193.727C281.139 193.65 281.354 193.528 281.539 193.367C281.724 193.207 281.876 193.011 281.985 192.791C282.094 192.572 282.158 192.333 282.173 192.088C282.189 191.843 282.156 191.598 282.076 191.366C281.996 191.135 281.871 190.921 281.708 190.738C280.666 189.538 279.094 188.748 277.353 188.42V188.25Z" fill="white"/>
<path d="M298.598 156.723C298.885 156.533 299.238 156.361 299.647 156.229V159.371C299.276 159.255 298.923 159.088 298.598 158.877C297.926 158.429 297.797 158.011 297.797 157.8C297.797 157.589 297.926 157.171 298.598 156.723ZM303.347 166.771V163.629C303.754 163.761 304.109 163.933 304.396 164.123C305.069 164.573 305.197 164.989 305.197 165.2C305.197 165.411 305.067 165.829 304.396 166.277C304.07 166.488 303.717 166.655 303.347 166.771Z" fill="white"/>
<path fill-rule="evenodd" clip-rule="evenodd" d="M301.503 176.3C305.428 176.3 309.193 174.741 311.968 171.965C314.744 169.19 316.303 165.425 316.303 161.5C316.303 157.575 314.744 153.811 311.968 151.035C309.193 148.259 305.428 146.7 301.503 146.7C297.578 146.7 293.813 148.259 291.038 151.035C288.262 153.811 286.703 157.575 286.703 161.5C286.703 165.425 288.262 169.19 291.038 171.965C293.813 174.741 297.578 176.3 301.503 176.3ZM303.353 152.25C303.353 151.76 303.158 151.289 302.811 150.942C302.464 150.595 301.994 150.4 301.503 150.4C301.012 150.4 300.542 150.595 300.195 150.942C299.848 151.289 299.653 151.76 299.653 152.25V152.42C298.548 152.617 297.494 153.034 296.553 153.645C295.217 154.533 294.103 155.967 294.103 157.8C294.103 159.632 295.217 161.065 296.553 161.955C297.441 162.547 298.502 162.964 299.653 163.18V166.771C298.93 166.536 298.395 166.184 298.094 165.838C297.937 165.646 297.744 165.488 297.525 165.372C297.306 165.256 297.066 165.185 296.819 165.164C296.572 165.143 296.323 165.171 296.088 165.248C295.852 165.324 295.634 165.447 295.447 165.61C295.26 165.772 295.107 165.97 294.998 166.193C294.889 166.415 294.826 166.657 294.812 166.905C294.799 167.152 294.835 167.4 294.918 167.633C295.002 167.866 295.132 168.08 295.3 168.262C296.34 169.463 297.914 170.253 299.653 170.58V170.75C299.653 171.241 299.848 171.711 300.195 172.058C300.542 172.405 301.012 172.6 301.503 172.6C301.994 172.6 302.464 172.405 302.811 172.058C303.158 171.711 303.353 171.241 303.353 170.75V170.58C304.458 170.383 305.513 169.967 306.454 169.355C307.789 168.467 308.903 167.034 308.903 165.2C308.903 163.369 307.789 161.935 306.454 161.045C305.513 160.434 304.458 160.017 303.353 159.82V156.23C304.076 156.464 304.611 156.816 304.913 157.162C305.071 157.349 305.264 157.504 305.482 157.615C305.7 157.727 305.939 157.795 306.183 157.814C306.427 157.833 306.673 157.804 306.906 157.727C307.139 157.65 307.354 157.528 307.539 157.368C307.724 157.207 307.876 157.011 307.985 156.792C308.094 156.572 308.158 156.333 308.173 156.088C308.189 155.844 308.156 155.598 308.076 155.367C307.996 155.135 307.871 154.921 307.708 154.738C306.666 153.538 305.094 152.748 303.353 152.42V152.25Z" fill="white"/>
<path d="M324.598 193.723C324.885 193.533 325.238 193.361 325.647 193.229V196.371C325.276 196.254 324.923 196.088 324.598 195.877C323.926 195.429 323.797 195.011 323.797 194.8C323.797 194.589 323.926 194.171 324.598 193.723ZM329.347 203.771V200.629C329.754 200.761 330.109 200.933 330.396 201.123C331.069 201.573 331.197 201.989 331.197 202.2C331.197 202.411 331.067 202.829 330.396 203.277C330.07 203.488 329.717 203.654 329.347 203.771Z" fill="white"/>
<path fill-rule="evenodd" clip-rule="evenodd" d="M327.503 213.3C331.428 213.3 335.193 211.741 337.968 208.965C340.744 206.19 342.303 202.425 342.303 198.5C342.303 194.575 340.744 190.81 337.968 188.035C335.193 185.259 331.428 183.7 327.503 183.7C323.578 183.7 319.813 185.259 317.038 188.035C314.262 190.81 312.703 194.575 312.703 198.5C312.703 202.425 314.262 206.19 317.038 208.965C319.813 211.741 323.578 213.3 327.503 213.3ZM329.353 189.25C329.353 188.759 329.158 188.289 328.811 187.942C328.464 187.595 327.994 187.4 327.503 187.4C327.012 187.4 326.542 187.595 326.195 187.942C325.848 188.289 325.653 188.759 325.653 189.25V189.42C324.548 189.617 323.494 190.033 322.553 190.645C321.217 191.533 320.103 192.967 320.103 194.8C320.103 196.631 321.217 198.065 322.553 198.955C323.441 199.547 324.502 199.963 325.653 200.18V203.771C324.93 203.536 324.395 203.184 324.094 202.838C323.937 202.646 323.744 202.487 323.525 202.372C323.306 202.256 323.066 202.185 322.819 202.164C322.572 202.142 322.323 202.171 322.088 202.247C321.852 202.324 321.634 202.447 321.447 202.609C321.26 202.772 321.107 202.97 320.998 203.193C320.889 203.415 320.826 203.657 320.812 203.904C320.799 204.152 320.835 204.399 320.918 204.633C321.002 204.866 321.132 205.08 321.3 205.262C322.34 206.462 323.914 207.252 325.653 207.58V207.75C325.653 208.241 325.848 208.711 326.195 209.058C326.542 209.405 327.012 209.6 327.503 209.6C327.994 209.6 328.464 209.405 328.811 209.058C329.158 208.711 329.353 208.241 329.353 207.75V207.58C330.458 207.383 331.513 206.967 332.454 206.355C333.789 205.467 334.903 204.033 334.903 202.2C334.903 200.368 333.789 198.935 332.454 198.045C331.513 197.433 330.458 197.017 329.353 196.82V193.229C330.076 193.464 330.611 193.816 330.913 194.162C331.071 194.349 331.264 194.503 331.482 194.615C331.7 194.727 331.939 194.795 332.183 194.814C332.427 194.833 332.673 194.803 332.906 194.727C333.139 194.65 333.354 194.528 333.539 194.367C333.724 194.207 333.876 194.011 333.985 193.791C334.094 193.572 334.158 193.333 334.173 193.088C334.189 192.843 334.156 192.598 334.076 192.366C333.996 192.135 333.871 191.921 333.708 191.738C332.666 190.538 331.094 189.748 329.353 189.42V189.25Z" fill="white"/>
</svg>
