<svg width="160" height="138" viewBox="0 0 160 138" fill="none" xmlns="http://www.w3.org/2000/svg">
<path d="M26 11.375C26 13.0989 25.3152 14.7522 24.0962 15.9712C22.8772 17.1902 21.2239 17.875 19.5 17.875C17.7761 17.875 16.1228 17.1902 14.9038 15.9712C13.6848 14.7522 13 13.0989 13 11.375C13 9.65109 13.6848 7.99779 14.9038 6.77881C16.1228 5.55982 17.7761 4.875 19.5 4.875C21.2239 4.875 22.8772 5.55982 24.0962 6.77881C25.3152 7.99779 26 9.65109 26 11.375ZM19.5 22.75C16.4832 22.75 13.5899 23.9484 11.4567 26.0817C9.32343 28.2149 8.125 31.1082 8.125 34.125H30.875C30.875 31.1082 29.6766 28.2149 27.5433 26.0817C25.4101 23.9484 22.5168 22.75 19.5 22.75Z" stroke="white" stroke-width="3" stroke-linecap="round" stroke-linejoin="round"/>
<path d="M86 11.375C86 13.0989 85.3152 14.7522 84.0962 15.9712C82.8772 17.1902 81.2239 17.875 79.5 17.875C77.7761 17.875 76.1228 17.1902 74.9038 15.9712C73.6848 14.7522 73 13.0989 73 11.375C73 9.65109 73.6848 7.99779 74.9038 6.77881C76.1228 5.55982 77.7761 4.875 79.5 4.875C81.2239 4.875 82.8772 5.55982 84.0962 6.77881C85.3152 7.99779 86 9.65109 86 11.375ZM79.5 22.75C76.4832 22.75 73.5899 23.9484 71.4567 26.0817C69.3234 28.2149 68.125 31.1082 68.125 34.125H90.875C90.875 31.1082 89.6766 28.2149 87.5433 26.0817C85.4101 23.9484 82.5168 22.75 79.5 22.75Z" stroke="white" stroke-width="3" stroke-linecap="round" stroke-linejoin="round"/>
<path d="M56 63.375C56 65.0989 55.3152 66.7522 54.0962 67.9712C52.8772 69.1902 51.2239 69.875 49.5 69.875C47.7761 69.875 46.1228 69.1902 44.9038 67.9712C43.6848 66.7522 43 65.0989 43 63.375C43 61.6511 43.6848 59.9978 44.9038 58.7788C46.1228 57.5598 47.7761 56.875 49.5 56.875C51.2239 56.875 52.8772 57.5598 54.0962 58.7788C55.3152 59.9978 56 61.6511 56 63.375ZM49.5 74.75C46.4832 74.75 43.5899 75.9484 41.4567 78.0817C39.3234 80.2149 38.125 83.1082 38.125 86.125H60.875C60.875 83.1082 59.6766 80.2149 57.5433 78.0817C55.4101 75.9484 52.5168 74.75 49.5 74.75Z" stroke="white" stroke-width="3" stroke-linecap="round" stroke-linejoin="round"/>
<path d="M86 110.375C86 112.099 85.3152 113.752 84.0962 114.971C82.8772 116.19 81.2239 116.875 79.5 116.875C77.7761 116.875 76.1228 116.19 74.9038 114.971C73.6848 113.752 73 112.099 73 110.375C73 108.651 73.6848 106.998 74.9038 105.779C76.1228 104.56 77.7761 103.875 79.5 103.875C81.2239 103.875 82.8772 104.56 84.0962 105.779C85.3152 106.998 86 108.651 86 110.375ZM79.5 121.75C76.4832 121.75 73.5899 122.948 71.4567 125.082C69.3234 127.215 68.125 130.108 68.125 133.125H90.875C90.875 130.108 89.6766 127.215 87.5433 125.082C85.4101 122.948 82.5168 121.75 79.5 121.75Z" stroke="white" stroke-width="3" stroke-linecap="round" stroke-linejoin="round"/>
<path d="M147 11.375C147 13.0989 146.315 14.7522 145.096 15.9712C143.877 17.1902 142.224 17.875 140.5 17.875C138.776 17.875 137.123 17.1902 135.904 15.9712C134.685 14.7522 134 13.0989 134 11.375C134 9.65109 134.685 7.99779 135.904 6.77881C137.123 5.55982 138.776 4.875 140.5 4.875C142.224 4.875 143.877 5.55982 145.096 6.77881C146.315 7.99779 147 9.65109 147 11.375ZM140.5 22.75C137.483 22.75 134.59 23.9484 132.457 26.0817C130.323 28.2149 129.125 31.1082 129.125 34.125H151.875C151.875 31.1082 150.677 28.2149 148.543 26.0817C146.41 23.9484 143.517 22.75 140.5 22.75Z" stroke="white" stroke-width="3" stroke-linecap="round" stroke-linejoin="round"/>
<path d="M117 63.375C117 65.0989 116.315 66.7522 115.096 67.9712C113.877 69.1902 112.224 69.875 110.5 69.875C108.776 69.875 107.123 69.1902 105.904 67.9712C104.685 66.7522 104 65.0989 104 63.375C104 61.6511 104.685 59.9978 105.904 58.7788C107.123 57.5598 108.776 56.875 110.5 56.875C112.224 56.875 113.877 57.5598 115.096 58.7788C116.315 59.9978 117 61.6511 117 63.375ZM110.5 74.75C107.483 74.75 104.59 75.9484 102.457 78.0817C100.323 80.2149 99.125 83.1082 99.125 86.125H121.875C121.875 83.1082 120.677 80.2149 118.543 78.0817C116.41 75.9484 113.517 74.75 110.5 74.75Z" stroke="white" stroke-width="3" stroke-linecap="round" stroke-linejoin="round"/>
</svg>
