<svg width="260" height="97" viewBox="0 0 260 97" fill="none" xmlns="http://www.w3.org/2000/svg">
<rect width="260" height="97" rx="48.5" fill="#E50914"/>
<path d="M154.883 51.6242C154.128 56.8917 149.085 60.8117 143.103 60.8117H117.153C111.212 60.8117 106.189 56.8917 105.413 51.6855C104.862 48.1738 104.862 44.6213 105.413 41.1096C106.169 35.883 111.212 31.9834 117.153 31.9834H143.103C149.044 31.9834 154.066 35.9034 154.842 41.1096C155.393 44.6009 155.393 48.1534 154.883 51.6242ZM141.571 42.988C141.163 41.1505 139.346 39.8438 137.202 39.8438C133.343 39.8438 126.892 39.8438 122.992 39.8438C120.91 39.8438 119.072 41.1505 118.684 42.988C118.133 45.2338 118.174 47.5409 118.684 49.7867C119.093 51.6242 120.91 52.9309 123.053 52.9309C126.912 52.9309 133.364 52.9309 137.223 52.9309C139.346 52.9309 141.183 51.6242 141.592 49.7867C142.082 47.5205 142.082 45.2338 141.571 42.988Z" fill="white"/>
<path d="M146.32 72.9998H113.919C112 72.9998 110.469 71.4481 110.469 69.5493V66.7931C110.469 64.8739 112.02 63.3223 113.919 63.3223H146.3C148.219 63.3223 149.75 64.8739 149.75 66.7931V69.5493C149.771 71.4481 148.219 72.9998 146.32 72.9998Z" fill="white"/>
<path d="M145.489 27.4495H143.141C142.447 27.4495 141.875 26.8779 141.875 26.1837V25.2854C141.875 24.5912 142.447 24.0195 143.141 24.0195H145.489C146.183 24.0195 146.755 24.5912 146.755 25.2854V26.1837C146.755 26.8779 146.203 27.4495 145.489 27.4495Z" fill="white"/>
<path d="M117.119 27.4504H114.75C114.056 27.4504 113.484 26.8788 113.484 26.1846V25.2658C113.484 24.5717 114.056 24 114.75 24H117.119C117.813 24 118.384 24.5717 118.384 25.2658V26.1846C118.364 26.8992 117.813 27.4504 117.119 27.4504Z" fill="white"/>
</svg>
